ply
format ascii 1.0
comment VCGLIB generated
element vertex 312
property float x
property float y
property float z
property float nx
property float ny
property float nz
property uchar red
property uchar green
property uchar blue
property uchar alpha
property float texture_u
property float texture_v
element face 260
property list uchar int vertex_indices
end_header
-84.3881 78.1574 45.2433 0 -0.01705716 0.9998546 175 175 175 255 -84.388100 78.157402
-76.7758 0.0021 43.91 0 -0.01705716 0.9998546 175 175 175 255 -76.775803 0.002100
-75.6777 78.1574 45.2433 0 -0.01705716 0.9998545 175 175 175 255 -75.677696 78.157402
-75.4522 78.1574 45.0178 0.9673512 -0.01996377 0.252652 175 175 175 255 -75.452202 78.157402
-76.7758 0.0021 37.3388 0.9673506 -0.0199638 -0.2526546 175 175 175 255 -76.775803 0.002100
-75.4522 78.1574 36.231 0.923684 -0.02106583 -0.3825757 175 175 175 255 -75.452202 78.157402
-75.6777 78.1574 36.0055 -7.903689e-06 -0.01705766 -0.9998545 175 175 175 255 -75.677696 78.157402
-83.29 0.0021 37.3389 -7.903689e-06 -0.01705766 -0.9998545 175 175 175 255 -83.290001 0.002100
-84.3881 78.1574 36.0055 0 -0.01705843 -0.9998545 175 175 175 255 -84.388100 78.157402
-84.6136 78.1574 36.231 -0.9673493 -0.01996418 -0.2526596 175 175 175 255 -84.613602 78.157402
-83.29 0.0021 43.91 -0.9673499 -0.01996382 0.2526571 175 175 175 255 -83.290001 0.002100
-84.6136 78.1574 45.0178 -0.9236823 -0.02106586 0.3825797 175 175 175 255 -84.613602 78.157402
84.3912 78.1573 45.2507 0 -0.01709847 0.9998538 175 175 175 255 84.391197 78.157303
76.7716 -0.0021 43.9141 -0.2526594 -0.02008874 0.9673467 175 175 175 255 76.771599 -0.002100
83.2941 -0.0021 43.9141 0 -0.01709847 0.9998538 175 175 175 255 83.294098 -0.002100
75.4448 78.1573 45.0209 -0.999856 -0.01697309 0 175 175 175 255 75.444801 78.157303
76.7716 -0.0021 37.3347 -0.999856 -0.01697309 0 175 175 175 255 76.771599 -0.002100
75.6746 78.1573 35.9981 -0.2526594 -0.02008874 -0.9673467 175 175 175 255 75.674599 78.157303
83.2941 -0.0021 37.3347 0 -0.01709847 -0.9998538 175 175 175 255 83.294098 -0.002100
84.6209 78.1573 36.2279 0.9673654 -0.01999859 -0.2525951 175 175 175 255 84.620903 78.157303
84.6209 78.1573 45.0209 0.9237214 -0.02109703 0.3824836 175 175 175 255 84.620903 78.157303
75.6746 78.1573 45.2507 -0.3825831 -0.02116551 0.9236786 175 175 175 255 75.674599 78.157303
75.4448 78.1573 36.2279 -0.7069414 -0.0220114 -0.7069296 175 175 175 255 75.444801 78.157303
84.3912 78.1573 35.9981 0.7070822 -0.02201186 -0.7067888 175 175 175 255 84.391197 78.157303
-84.3915 78.1572 -45.2516 0 -0.01710402 -0.9998537 175 175 175 255 -84.391502 78.157204
-76.7711 0 -43.9146 0 -0.01710402 -0.9998537 175 175 175 255 -76.771103 0.000000
-83.2946 -0 -43.9146 0 -0.01710402 -0.9998537 175 175 175 255 -83.294601 -0.000000
-75.4439 78.1572 -45.0213 0.9673485 -0.02000437 -0.2526595 175 175 175 255 -75.443901 78.157204
-76.7711 0 -37.3342 0.9998559 -0.01697874 0 175 175 175 255 -76.771103 0.000000
-75.6742 78.1572 -35.9972 0.2526569 -0.02009392 0.9673473 175 175 175 255 -75.674202 78.157204
-83.2946 0 -37.3342 0 -0.01710407 0.9998537 175 175 175 255 -83.294601 0.000000
-84.6219 78.1572 -36.2275 -0.9673323 -0.02000619 0.2527212 175 175 175 255 -84.621902 78.157204
-84.6219 78.1572 -45.0213 -0.9236388 -0.02110441 -0.3826827 175 175 175 255 -84.621902 78.157204
-75.6742 78.1572 -45.2516 0.7069296 -0.02201474 -0.7069413 175 175 175 255 -75.674202 78.157204
-75.4439 78.1572 -36.2275 0.7069354 -0.02201476 0.7069354 175 175 175 255 -75.443901 78.157204
-84.3915 78.1572 -35.9972 -0.7067832 -0.02201523 0.7070876 175 175 175 255 -84.391502 78.157204
84.3915 78.1572 -45.2516 0.2525902 -0.02009324 -0.9673647 175 175 175 255 84.391502 78.157204
76.7711 0 -43.9146 -0.2526544 -0.02009385 -0.9673479 175 175 175 255 76.771103 0.000000
75.6742 78.1572 -45.2516 -0.3825755 -0.02117026 -0.9236817 175 175 175 255 75.674202 78.157204
75.4439 78.1572 -45.0213 -0.9998559 -0.01697874 0 175 175 175 255 75.443901 78.157204
76.7711 0 -37.3342 -0.9998559 -0.01697874 0 175 175 175 255 76.771103 0.000000
75.4439 78.1572 -36.2275 -0.9998559 -0.01697874 0 175 175 175 255 75.443901 78.157204
75.6742 78.1572 -35.9972 -0.2526569 -0.02009392 0.9673473 175 175 175 255 75.674202 78.157204
83.2946 0 -37.3342 0.2525927 -0.02009331 0.9673641 175 175 175 255 83.294601 0.000000
84.3915 78.1572 -35.9972 0.3824799 -0.02116964 0.9237213 175 175 175 255 84.391502 78.157204
84.6219 78.1572 -36.2275 0.9998559 -0.01698001 0 175 175 175 255 84.621902 78.157204
83.2946 -0 -43.9146 0.9998559 -0.01698001 0 175 175 175 255 83.294601 -0.000000
84.6219 78.1572 -45.0213 0.9998559 -0.01698001 0 175 175 175 255 84.621902 78.157204
-77.7304 78.2148 36.4029 1 0 0 175 175 175 255 -77.730400 78.214798
-77.7304 68.383 -36.7892 0.9675382 -0.2527248 0 175 175 175 255 -77.730400 68.383003
-77.7304 78.2148 -36.7892 1 0 0 175 175 175 255 -77.730400 78.214798
-78.2078 67.9056 36.4029 0 -1 0 175 175 175 255 -78.207802 67.905602
-82.3309 67.9056 -36.7892 0 -1 0 175 175 175 255 -82.330902 67.905602
-78.2078 67.9056 -36.7892 0 -1 0 175 175 175 255 -78.207802 67.905602
-82.8083 68.383 36.4029 -0.9675389 -0.2527224 0 175 175 175 255 -82.808296 68.383003
-82.8083 78.2148 -36.7892 -1 0 0 175 175 175 255 -82.808296 78.214798
-82.8083 68.383 -36.7892 -0.862859 -0.5054447 0 175 175 175 255 -82.808296 68.383003
-77.7304 68.383 36.4029 0.8628562 -0.5054495 0 175 175 175 255 -77.730400 68.383003
-82.3309 67.9056 36.4029 -0.7071124 -0.7071012 0 175 175 175 255 -82.330902 67.905602
77.7304 78.2148 36.4029 -1 0 0 175 175 175 255 77.730400 78.214798
77.7304 68.383 -36.7892 -0.9675382 -0.2527248 0 175 175 175 255 77.730400 68.383003
77.7304 68.383 36.4029 -0.8628562 -0.5054495 0 175 175 175 255 77.730400 68.383003
78.2078 67.9056 36.4029 0 -1 0 175 175 175 255 78.207802 67.905602
82.3309 67.9056 -36.7892 0 -1 0 175 175 175 255 82.330902 67.905602
82.3309 67.9056 36.4029 0 -1 0 175 175 175 255 82.330902 67.905602
82.8083 68.383 36.4029 0.9675389 -0.2527224 0 175 175 175 255 82.808296 68.383003
82.8083 78.2148 -36.7892 1 0 0 175 175 175 255 82.808296 78.214798
82.8083 78.2148 36.4029 1 0 0 175 175 175 255 82.808296 78.214798
78.2078 67.9056 -36.7892 -0.7071068 -0.7071068 0 175 175 175 255 78.207802 67.905602
82.8083 68.383 -36.7892 0.862859 -0.5054447 0 175 175 175 255 82.808296 68.383003
-76.1467 67.8864 42.8635 0 -1 0 175 175 175 255 -76.146698 67.886398
76.1467 67.8864 38.3854 0 -1 0 175 175 175 255 76.146698 67.886398
76.1467 67.8864 42.8635 0 -1 0 175 175 175 255 76.146698 67.886398
-76.1467 68.2055 38.0662 0 -0.3827552 -0.9238498 175 175 175 255 -76.146698 68.205498
76.1467 78.1214 38.0662 0 0 -1 175 175 175 255 76.146698 78.121399
76.1467 68.2055 38.0662 0 -0.3827552 -0.9238498 175 175 175 255 76.146698 68.205498
76.1467 78.1214 43.1826 0 0 1 175 175 175 255 76.146698 78.121399
-76.1467 68.2055 43.1826 0 -0.2527248 0.9675382 175 175 175 255 -76.146698 68.205498
76.1467 68.2055 43.1826 0 -0.5054495 0.8628562 175 175 175 255 76.146698 68.205498
-76.1467 67.8864 -42.8635 0 -1 0 175 175 175 255 -76.146698 67.886398
76.1467 67.8864 -38.3854 0 -1 0 175 175 175 255 76.146698 67.886398
-76.1467 67.8864 -38.3854 0 -1 0 175 175 175 255 -76.146698 67.886398
-76.1467 68.2055 -38.0662 0 -0.3827552 0.9238498 175 175 175 255 -76.146698 68.205498
76.1467 78.1214 -38.0662 0 0 1 175 175 175 255 76.146698 78.121399
-76.1467 78.1214 -38.0662 0 0 1 175 175 175 255 -76.146698 78.121399
76.1467 78.1214 -43.1826 0 0 -1 175 175 175 255 76.146698 78.121399
-76.1467 68.2055 -43.1826 0 -0.2527248 -0.9675382 175 175 175 255 -76.146698 68.205498
-76.1467 78.1214 -43.1826 0 0 -1 175 175 175 255 -76.146698 78.121399
76.1467 68.2055 -43.1826 0 -0.5054495 -0.8628562 175 175 175 255 76.146698 68.205498
-90.736 82.1808 44.5583 0 1 0 175 175 175 255 -90.736000 82.180801
-89.4338 82.1808 48.511 0 1 0 175 175 175 255 -89.433800 82.180801
-90.736 82.1808 -44.5583 0 1 0 175 175 175 255 -90.736000 82.180801
85.4895 81.9254 50.064 0.02053363 0.3786386 0.9253169 175 175 175 255 85.489502 81.925400
85.4811 82.1808 49.8132 0.03166012 0.7008522 0.7126036 175 175 175 255 85.481102 82.180801
-85.4811 82.1808 49.8132 -0.0158363 0.7008233 0.7131591 175 175 175 255 -85.481102 82.180801
90.9868 81.9254 -44.5667 0.9253156 0.3786421 -0.02052391 175 175 175 255 90.986801 81.925400
90.736 82.1808 -44.5583 0.7125556 0.7009019 -0.0316383 175 175 175 255 90.736000 82.180801
90.736 82.1808 44.5583 0.7131538 0.7008287 0.01583542 175 175 175 255 90.736000 82.180801
-90.9868 81.9254 44.5667 -0.9253154 0.3786421 0.0205336 175 175 175 255 -90.986801 81.925400
-85.4895 81.9254 -50.064 -0.02053521 0.3786386 -0.9253168 175 175 175 255 -85.489502 81.925400
-85.4811 82.1808 -49.8132 -0.03166154 0.700849 -0.7126066 175 175 175 255 -85.481102 82.180801
85.4811 82.1808 -49.8132 0.0158363 0.7008233 -0.7131591 175 175 175 255 85.481102 82.180801
-85.4895 81.9254 50.064 -0.04107406 0.3786552 0.9246259 175 175 175 255 -85.489502 81.925400
-86.7417 82.1808 49.7291 -0.09982021 0.7017645 0.7053812 175 175 175 255 -86.741699 82.180801
90.9868 81.9254 44.5667 0.9246244 0.3786592 0.04107198 175 175 175 255 90.986801 81.925400
90.6519 82.1808 45.8189 0.7053642 0.7017823 0.09981485 175 175 175 255 90.651901 82.180801
-90.9868 81.9254 -44.5667 -0.9246244 0.3786592 -0.04107198 175 175 175 255 -90.986801 81.925400
-90.6519 82.1808 -45.8189 -0.7053642 0.7017823 -0.09981485 175 175 175 255 -90.651901 82.180801
85.4895 81.9254 -50.064 0.04107498 0.3786549 -0.9246261 175 175 175 255 85.489502 81.925400
86.7417 82.1808 -49.7291 0.09982021 0.7017645 -0.7053812 175 175 175 255 86.741699 82.180801
-90.9009 81.9254 45.8551 -0.9159636 0.3797274 0.1296836 175 175 175 255 -90.900902 81.925400
-90.6519 82.1808 45.8189 -0.6972319 0.7004855 0.1522753 175 175 175 255 -90.651901 82.180801
-90.4284 81.9254 47.4445 -0.8573235 0.3793397 0.3479913 175 175 175 255 -90.428398 81.925400
-90.201 82.1808 47.3387 -0.632494 0.6999754 0.331641 175 175 175 255 -90.200996 82.180801
-89.6126 81.9255 48.6898 -0.7752328 0.3757954 0.5077323 175 175 175 255 -89.612602 81.925499
-88.3673 81.9254 49.5056 -0.4299624 0.3789237 0.8194811 175 175 175 255 -88.367302 81.925400
-88.2615 82.1808 49.2782 -0.2682004 0.7006387 0.6611915 175 175 175 255 -88.261497 82.180801
-86.7778 81.9254 49.9781 -0.197423 0.3788883 0.9041393 175 175 175 255 -86.777802 81.925400
86.7779 81.9254 49.9781 0.1296833 0.3797266 0.915964 175 175 175 255 86.777901 81.925400
86.7417 82.1808 49.7291 0.1522747 0.7004865 0.697231 175 175 175 255 86.741699 82.180801
88.3673 81.9254 49.5056 0.3479904 0.3793411 0.8573232 175 175 175 255 88.367302 81.925400
88.2615 82.1808 49.2782 0.3302565 0.7056659 0.6268702 175 175 175 255 88.261497 82.180801
89.6126 81.9255 48.6898 0.5078202 0.3812297 0.772517 175 175 175 255 89.612602 81.925499
89.4255 82.1808 48.5027 0.3888869 0.7127768 0.5837091 175 175 175 255 89.425499 82.180801
90.4284 81.9254 47.4445 0.8178505 0.38238 0.430007 175 175 175 255 90.428398 81.925400
90.201 82.1808 47.3387 0.6603941 0.7006981 0.2700034 175 175 175 255 90.200996 82.180801
90.9009 81.9254 45.8551 0.9041346 0.3788974 0.1974269 175 175 175 255 90.900902 81.925400
-86.7778 81.9254 -49.9781 -0.1296821 0.3797156 -0.9159687 175 175 175 255 -86.777802 81.925400
-86.7417 82.1808 -49.7291 -0.1522747 0.70047 -0.6972476 175 175 175 255 -86.741699 82.180801
-88.3673 81.9254 -49.5056 -0.3479833 0.3793328 -0.8573298 175 175 175 255 -88.367302 81.925400
-88.2615 82.1808 -49.2782 -0.3316406 0.6999764 -0.6324931 175 175 175 255 -88.261497 82.180801
-89.6126 81.9255 -48.6898 -0.5077335 0.3757958 -0.7752318 175 175 175 255 -89.612602 81.925499
-89.4338 82.1808 -48.511 -0.3931541 0.6960791 -0.6007527 175 175 175 255 -89.433800 82.180801
-90.4284 81.9255 -47.4445 -0.8194554 0.3789842 -0.4299579 175 175 175 255 -90.428398 81.925499
-90.201 82.1808 -47.3387 -0.6611018 0.700742 -0.2681512 175 175 175 255 -90.200996 82.180801
-90.9009 81.9254 -45.8551 -0.9041249 0.3789266 -0.1974153 175 175 175 255 -90.900902 81.925400
90.9009 81.9255 -45.8551 0.9159406 0.3797879 -0.1296688 175 175 175 255 90.900902 81.925499
90.6519 82.1808 -45.8189 0.697099 0.700624 -0.1522464 175 175 175 255 90.651901 82.180801
90.4284 81.9255 -47.4445 0.857286 0.3794299 -0.3479851 175 175 175 255 90.428398 81.925499
90.201 82.1808 -47.3387 0.632405 0.7000673 -0.3316168 175 175 175 255 90.200996 82.180801
89.6126 81.9255 -48.6898 0.775211 0.3758393 -0.507733 175 175 175 255 89.612602 81.925499
89.4338 82.1808 -48.511 0.6007513 0.6960807 -0.3931532 175 175 175 255 89.433800 82.180801
88.3673 81.9254 -49.5056 0.4299624 0.3789237 -0.8194811 175 175 175 255 88.367302 81.925400
88.2615 82.1808 -49.2782 0.2682004 0.7006387 -0.6611915 175 175 175 255 88.261497 82.180801
86.7778 81.9254 -49.9781 0.1974201 0.3788869 -0.9041405 175 175 175 255 86.777802 81.925400
-85.4895 78.0441 50.064 -0.0221855 0 0.9997539 175 175 175 255 -85.489502 78.044098
85.4895 78.0441 50.064 0.044371 0 0.9990152 175 175 175 255 85.489502 78.044098
90.9868 78.0441 44.5667 0.9997539 0 0.0221855 175 175 175 255 90.986801 78.044098
90.9868 78.0441 -44.5667 0.9990152 0 -0.04437099 175 175 175 255 90.986801 78.044098
-90.9868 78.0441 -44.5667 -0.9997539 0 -0.0221855 175 175 175 255 -90.986801 78.044098
-90.9868 78.0441 44.5667 -0.9990152 0 0.044371 175 175 175 255 -90.986801 78.044098
85.4895 78.0441 -50.064 0.0221872 0 -0.9997538 175 175 175 255 85.489502 78.044098
-85.4895 78.0441 -50.064 -0.0443744 0 -0.999015 175 175 175 255 -85.489502 78.044098
-86.7779 78.0441 49.9781 -0.1401052 3.010206e-06 0.9901366 175 175 175 255 -86.777901 78.044098
90.9009 78.0441 45.8551 0.9901368 0 0.1401042 175 175 175 255 90.900902 78.044098
-90.9009 78.0441 -45.8551 -0.9901368 0 -0.1401042 175 175 175 255 -90.900902 78.044098
86.7778 78.0441 -49.9781 0.1401013 0 -0.9901372 175 175 175 255 86.777802 78.044098
-90.9009 78.0441 45.8551 -0.976983 0 0.2133176 175 175 175 255 -90.900902 78.044098
-90.4284 78.0441 47.4445 -0.8854839 0 0.4646701 175 175 175 255 -90.428398 78.044098
-89.6126 78.0441 48.6898 -0.836489 0 0.5479837 175 175 175 255 -89.612602 78.044098
-88.3673 78.0441 49.5056 -0.3761584 2.450244e-06 0.9265554 175 175 175 255 -88.367302 78.044098
86.7779 78.0441 49.9781 0.2133162 0 0.9769832 175 175 175 255 86.777901 78.044098
88.3673 78.0441 49.5056 0.4646708 0 0.8854836 175 175 175 255 88.367302 78.044098
89.6126 78.0441 48.6898 0.5479856 0 0.8364878 175 175 175 255 89.612602 78.044098
90.4284 78.0441 47.4445 0.926553 0 0.3761644 175 175 175 255 90.428398 78.044098
-86.7778 78.0441 -49.9781 -0.2133067 0 -0.9769853 175 175 175 255 -86.777802 78.044098
-88.3673 78.0441 -49.5056 -0.4646658 0 -0.8854862 175 175 175 255 -88.367302 78.044098
-89.6126 78.0441 -48.6898 -0.5479856 0 -0.8364878 175 175 175 255 -89.612602 78.044098
-90.4284 78.0441 -47.4445 -0.926553 0 -0.3761643 175 175 175 255 -90.428398 78.044098
90.9009 78.0441 -45.8551 0.976983 0 -0.2133176 175 175 175 255 90.900902 78.044098
90.4284 78.0441 -47.4445 0.8854839 0 -0.4646701 175 175 175 255 90.428398 78.044098
89.6126 78.0441 -48.6898 0.836489 0 -0.5479837 175 175 175 255 89.612602 78.044098
88.3673 78.0441 -49.5056 0.3761531 0 -0.9265575 175 175 175 255 88.367302 78.044098
-82.8083 78.2148 36.4029 -1 0 0 175 175 175 255 -82.808296 78.214798
77.7304 78.2148 -36.7892 -1 0 0 175 175 175 255 77.730400 78.214798
-76.1467 67.8864 38.3854 0 -1 0 175 175 175 255 -76.146698 67.886398
-76.1467 78.1214 38.0662 0 0 -1 175 175 175 255 -76.146698 78.121399
-76.1467 78.1214 43.1826 0 0 1 175 175 175 255 -76.146698 78.121399
76.1467 67.8864 -42.8635 0 -1 0 175 175 175 255 76.146698 67.886398
76.1467 68.2055 -38.0662 0 -0.3827552 0.9238498 175 175 175 255 76.146698 68.205498
-83.29 0.0021 37.3389 0 -1 0 175 175 175 255 -83.290001 0.002100
-76.7758 0.0021 37.3388 0 -1 0 175 175 175 255 -76.775803 0.002100
-83.29 0.0021 43.91 0 -1 0 175 175 175 255 -83.290001 0.002100
-84.3881 78.1574 45.2433 -0.7069358 -0.02199267 0.7069358 175 175 175 255 -84.388100 78.157402
-76.7758 0.0021 43.91 0.9236856 -0.0210658 0.3825717 175 175 175 255 -76.775803 0.002100
-75.6777 78.1574 45.2433 0.7069479 -0.0219927 0.7069237 175 175 175 255 -75.677696 78.157402
-75.6777 78.1574 36.0055 0.7069419 -0.02199269 -0.7069296 175 175 175 255 -75.677696 78.157402
-83.29 0.0021 37.3389 -0.9236808 -0.02106638 -0.3825834 175 175 175 255 -83.290001 0.002100
-84.3881 78.1574 36.0055 -0.70693 -0.02199358 -0.7069415 175 175 175 255 -84.388100 78.157402
76.7716 -0.0021 43.9141 -0.999856 -0.01697309 0 175 175 175 255 76.771599 -0.002100
76.7716 -0.0021 37.3347 -0.3825831 -0.02116551 -0.9236786 175 175 175 255 76.771599 -0.002100
83.2941 -0.0021 43.9141 0.9673654 -0.01999859 0.2525951 175 175 175 255 83.294098 -0.002100
83.2941 -0.0021 37.3347 0.9237214 -0.02109703 -0.3824836 175 175 175 255 83.294098 -0.002100
83.2941 -0.0021 43.9141 0 -1 0 175 175 175 255 83.294098 -0.002100
76.7716 -0.0021 43.9141 0 -1 0 175 175 175 255 76.771599 -0.002100
76.7716 -0.0021 37.3347 0 -1 0 175 175 175 255 76.771599 -0.002100
84.3912 78.1573 45.2507 0.7070822 -0.02201186 0.7067888 175 175 175 255 84.391197 78.157303
75.4448 78.1573 45.0209 -0.7069414 -0.0220114 0.7069296 175 175 175 255 75.444801 78.157303
-76.7711 0 -43.9146 0.92368 -0.02110253 -0.3825833 175 175 175 255 -76.771103 0.000000
-76.7711 0 -37.3342 0.3825793 -0.02117033 0.9236801 175 175 175 255 -76.771103 0.000000
-83.2946 -0 -43.9146 -0.9673316 -0.02000622 -0.2527237 175 175 175 255 -83.294601 -0.000000
-83.2946 0 -37.3342 -0.9236404 -0.02110439 0.3826789 175 175 175 255 -83.294601 0.000000
-83.2946 -0 -43.9146 0 -1 0 175 175 175 255 -83.294601 -0.000000
-76.7711 0 -43.9146 0 -1 0 175 175 175 255 -76.771103 0.000000
-76.7711 0 -37.3342 0 -1 0 175 175 175 255 -76.771103 0.000000
-84.3915 78.1572 -45.2516 -0.7067773 -0.02201521 -0.7070935 175 175 175 255 -84.391502 78.157204
83.2946 0 -37.3342 0 -1 0 175 175 175 255 83.294601 0.000000
76.7711 0 -37.3342 0 -1 0 175 175 175 255 76.771103 0.000000
83.2946 -0 -43.9146 0 -1 0 175 175 175 255 83.294601 -0.000000
84.6219 78.1572 -45.0213 0.7067773 -0.02201521 -0.7070935 175 175 175 255 84.621902 78.157204
83.2946 -0 -43.9146 0.382476 -0.02116956 -0.9237229 175 175 175 255 83.294601 -0.000000
75.4439 78.1572 -45.0213 -0.7069296 -0.02201475 -0.7069412 175 175 175 255 75.443901 78.157204
76.7711 0 -37.3342 -0.3825793 -0.02117033 0.9236801 175 175 175 255 76.771103 0.000000
75.4439 78.1572 -36.2275 -0.7069354 -0.02201477 0.7069354 175 175 175 255 75.443901 78.157204
84.6219 78.1572 -36.2275 0.7067832 -0.02201523 0.7070876 175 175 175 255 84.621902 78.157204
-78.2078 67.9056 -36.7892 0.7071068 -0.7071068 0 175 175 175 255 -78.207802 67.905602
-82.3309 67.9056 -36.7892 -0.7071124 -0.7071012 0 175 175 175 255 -82.330902 67.905602
78.2078 67.9056 36.4029 -0.7071068 -0.7071068 0 175 175 175 255 78.207802 67.905602
82.3309 67.9056 36.4029 0.7071124 -0.7071012 0 175 175 175 255 82.330902 67.905602
-76.1467 67.8864 42.8635 0 -0.7071068 0.7071068 175 175 175 255 -76.146698 67.886398
76.1467 67.8864 42.8635 0 -0.7071068 0.7071068 175 175 175 255 76.146698 67.886398
76.1467 67.8864 38.3854 0 -0.7072166 -0.7069969 175 175 175 255 76.146698 67.886398
-76.1467 67.8864 -42.8635 0 -0.7071068 -0.7071068 175 175 175 255 -76.146698 67.886398
76.1467 67.8864 -38.3854 0 -0.7072166 0.7069969 175 175 175 255 76.146698 67.886398
-76.1467 67.8864 -38.3854 0 -0.7072166 0.7069969 175 175 175 255 -76.146698 67.886398
-90.736 82.1808 44.5583 -0.7126002 0.7008557 0.03165925 175 175 175 255 -90.736000 82.180801
-90.736 82.1808 -44.5583 -0.7131538 0.7008287 -0.01583542 175 175 175 255 -90.736000 82.180801
-89.4338 82.1808 48.511 -0.6007513 0.6960807 0.3931532 175 175 175 255 -89.433800 82.180801
-89.4338 82.1808 48.511 -0.3930368 0.6965274 0.6003097 175 175 175 255 -89.433800 82.180801
89.4255 82.1808 48.5027 0.5922221 0.7044061 0.3912609 175 175 175 255 89.425499 82.180801
-89.4338 82.1808 -48.511 -0.6002396 0.6965986 -0.3930176 175 175 175 255 -89.433800 82.180801
89.4338 82.1808 -48.511 0.3930368 0.6965274 -0.6003097 175 175 175 255 89.433800 82.180801
-89.6126 78.0441 48.6898 -0.5479856 0 0.8364878 175 175 175 255 -89.612602 78.044098
89.6126 78.0441 48.6898 0.836489 0 0.5479838 175 175 175 255 89.612602 78.044098
-89.6126 78.0441 -48.6898 -0.836489 0 -0.5479837 175 175 175 255 -89.612602 78.044098
89.6126 78.0441 -48.6898 0.5479856 0 -0.8364878 175 175 175 255 89.612602 78.044098
-85.4895 78.0441 50.064 0 -1 0 175 175 175 255 -85.489502 78.044098
-85.4895 78.0441 -50.064 0 -1 0 175 175 175 255 -85.489502 78.044098
85.4895 78.0441 50.064 0 -1 0 175 175 175 255 85.489502 78.044098
85.4811 82.1808 49.8132 0 1 0 175 175 175 255 85.481102 82.180801
86.7417 82.1808 49.7291 0 1 0 175 175 175 255 86.741699 82.180801
85.4811 82.1808 -49.8132 0 1 0 175 175 175 255 85.481102 82.180801
90.736 82.1808 -44.5583 0 1 0 175 175 175 255 90.736000 82.180801
90.201 82.1808 -47.3387 0 1 0 175 175 175 255 90.200996 82.180801
89.4338 82.1808 -48.511 0 1 0 175 175 175 255 89.433800 82.180801
89.4255 82.1808 48.5027 0 1 0 175 175 175 255 89.425499 82.180801
90.201 82.1808 47.3387 0 1 0 175 175 175 255 90.200996 82.180801
90.736 82.1808 44.5583 0 1 0 175 175 175 255 90.736000 82.180801
85.4895 78.0441 -50.064 0 -1 0 175 175 175 255 85.489502 78.044098
86.7778 78.0441 -49.9781 0 -1 0 175 175 175 255 86.777802 78.044098
90.9868 78.0441 44.5667 0 -1 0 175 175 175 255 90.986801 78.044098
90.4284 78.0441 47.4445 0 -1 0 175 175 175 255 90.428398 78.044098
89.6126 78.0441 48.6898 0 -1 0 175 175 175 255 89.612602 78.044098
89.6126 78.0441 -48.6898 0 -1 0 175 175 175 255 89.612602 78.044098
90.4284 78.0441 -47.4445 0 -1 0 175 175 175 255 90.428398 78.044098
90.9868 78.0441 -44.5667 0 -1 0 175 175 175 255 90.986801 78.044098
-85.4811 82.1808 49.8132 0 1 0 175 175 175 255 -85.481102 82.180801
-85.4811 82.1808 -49.8132 0 1 0 175 175 175 255 -85.481102 82.180801
-86.7417 82.1808 49.7291 0 1 0 175 175 175 255 -86.741699 82.180801
-86.7417 82.1808 -49.7291 0 1 0 175 175 175 255 -86.741699 82.180801
-88.2615 82.1808 49.2782 0 1 0 175 175 175 255 -88.261497 82.180801
-88.2615 82.1808 -49.2782 0 1 0 175 175 175 255 -88.261497 82.180801
-89.4338 82.1808 -48.511 0 1 0 175 175 175 255 -89.433800 82.180801
-90.201 82.1808 47.3387 0 1 0 175 175 175 255 -90.200996 82.180801
-90.201 82.1808 -47.3387 0 1 0 175 175 175 255 -90.200996 82.180801
-86.7779 78.0441 49.9781 0 -1 0 175 175 175 255 -86.777901 78.044098
-89.6126 78.0441 48.6898 0 -1 0 175 175 175 255 -89.612602 78.044098
-90.4284 78.0441 47.4445 0 -1 0 175 175 175 255 -90.428398 78.044098
-90.9868 78.0441 44.5667 0 -1 0 175 175 175 255 -90.986801 78.044098
-90.9868 78.0441 -44.5667 0 -1 0 175 175 175 255 -90.986801 78.044098
-90.4284 78.0441 -47.4445 0 -1 0 175 175 175 255 -90.428398 78.044098
-89.6126 78.0441 -48.6898 0 -1 0 175 175 175 255 -89.612602 78.044098
86.7417 82.1808 -49.7291 0 1 0 175 175 175 255 86.741699 82.180801
88.2615 82.1808 49.2782 0 1 0 175 175 175 255 88.261497 82.180801
88.2615 82.1808 -49.2782 0 1 0 175 175 175 255 88.261497 82.180801
86.7779 78.0441 49.9781 0 -1 0 175 175 175 255 86.777901 78.044098
88.3673 78.0441 -49.5056 0 -1 0 175 175 175 255 88.367302 78.044098
88.3673 78.0441 49.5056 0 -1 0 175 175 175 255 88.367302 78.044098
-86.7778 78.0441 -49.9781 0 -1 0 175 175 175 255 -86.777802 78.044098
-88.3673 78.0441 49.5056 0 -1 0 175 175 175 255 -88.367302 78.044098
-88.3673 78.0441 -49.5056 0 -1 0 175 175 175 255 -88.367302 78.044098
-83.29 0.0021 43.91 0 -0.01705716 0.9998545 175 175 175 255 -83.290001 0.002100
-76.7758 0.0021 37.3388 -1.580738e-05 -0.01705689 -0.9998545 175 175 175 255 -76.775803 0.002100
-76.7758 0.0021 43.91 0 -1 0 175 175 175 255 -76.775803 0.002100
75.4448 78.1573 36.2279 -0.999856 -0.01697309 0 175 175 175 255 75.444801 78.157303
84.3912 78.1573 35.9981 0 -0.01709847 -0.9998538 175 175 175 255 84.391197 78.157303
83.2941 -0.0021 37.3347 0 -1 0 175 175 175 255 83.294098 -0.002100
-75.6742 78.1572 -45.2516 0 -0.01710402 -0.9998537 175 175 175 255 -75.674202 78.157204
-75.4439 78.1572 -36.2275 0.9998559 -0.01697874 0 175 175 175 255 -75.443901 78.157204
-84.3915 78.1572 -35.9972 0 -0.01710407 0.9998537 175 175 175 255 -84.391502 78.157204
-83.2946 0 -37.3342 0 -1 0 175 175 175 255 -83.294601 0.000000
76.7711 0 -43.9146 -0.9998559 -0.01697874 0 175 175 175 255 76.771103 0.000000
83.2946 0 -37.3342 0.9998559 -0.01698001 0 175 175 175 255 83.294601 0.000000
76.7711 0 -43.9146 0 -1 0 175 175 175 255 76.771103 0.000000
-82.3309 67.9056 36.4029 0 -1 0 175 175 175 255 -82.330902 67.905602
-78.2078 67.9056 36.4029 0.7071068 -0.7071068 0 175 175 175 255 -78.207802 67.905602
78.2078 67.9056 -36.7892 0 -1 0 175 175 175 255 78.207802 67.905602
82.3309 67.9056 -36.7892 0.7071124 -0.7071012 0 175 175 175 255 82.330902 67.905602
-76.1467 67.8864 38.3854 0 -0.7072166 -0.7069969 175 175 175 255 -76.146698 67.886398
76.1467 67.8864 -42.8635 0 -0.7071068 -0.7071068 175 175 175 255 76.146698 67.886398
-89.6126 81.9255 48.6898 -0.5078549 0.3755424 0.775275 175 175 175 255 -89.612602 81.925499
89.6126 81.9255 48.6898 0.771663 0.386032 0.5054855 175 175 175 255 89.612602 81.925499
-89.6126 81.9255 -48.6898 -0.7752609 0.3755464 -0.5078733 175 175 175 255 -89.612602 81.925499
89.6126 81.9255 -48.6898 0.5078549 0.3755424 -0.775275 175 175 175 255 89.612602 81.925499
90.6519 82.1808 -45.8189 0 1 0 175 175 175 255 90.651901 82.180801
90.6519 82.1808 45.8189 0 1 0 175 175 175 255 90.651901 82.180801
90.9009 78.0441 45.8551 0 -1 0 175 175 175 255 90.900902 78.044098
90.9009 78.0441 -45.8551 0 -1 0 175 175 175 255 90.900902 78.044098
-90.6519 82.1808 45.8189 0 1 0 175 175 175 255 -90.651901 82.180801
-90.6519 82.1808 -45.8189 0 1 0 175 175 175 255 -90.651901 82.180801
-90.9009 78.0441 45.8551 0 -1 0 175 175 175 255 -90.900902 78.044098
-90.9009 78.0441 -45.8551 0 -1 0 175 175 175 255 -90.900902 78.044098
3 0 1 2 
3 3 4 5 
3 6 7 8 
3 9 10 11 
3 180 181 182 
3 183 11 10 
3 184 3 185 
3 4 186 5 
3 187 9 188 
3 12 13 14 
3 15 16 189 
3 17 18 190 
3 19 191 192 
3 193 194 195 
3 196 191 20 
3 21 197 13 
3 22 17 190 
3 23 19 192 
3 24 25 26 
3 27 28 198 
3 29 30 199 
3 31 200 201 
3 202 203 204 
3 205 200 32 
3 33 27 198 
3 34 29 199 
3 35 31 201 
3 36 37 38 
3 39 40 41 
3 42 43 44 
3 45 46 47 
3 206 207 208 
3 36 209 210 
3 37 211 38 
3 212 42 213 
3 43 214 44 
3 48 49 50 
3 51 52 53 
3 54 55 56 
3 57 215 49 
3 58 56 216 
3 59 60 61 
3 62 63 64 
3 65 66 67 
3 61 68 217 
3 218 69 65 
3 70 71 72 
3 73 74 75 
3 76 77 78 
3 78 219 220 
3 221 73 75 
3 79 80 81 
3 82 83 84 
3 85 86 87 
3 88 222 86 
3 223 82 224 
3 89 90 91 
3 92 93 94 
3 95 96 97 
3 98 225 226 
3 99 100 101 
3 102 94 103 
3 104 97 105 
3 106 226 107 
3 108 101 109 
3 110 111 225 
3 112 113 111 
3 114 227 113 
3 115 116 228 
3 117 103 116 
3 118 119 93 
3 120 121 119 
3 122 123 121 
3 124 125 229 
3 126 105 125 
3 127 128 100 
3 129 130 128 
3 131 132 130 
3 133 134 230 
3 135 107 134 
3 136 137 96 
3 138 139 137 
3 140 141 139 
3 142 143 231 
3 144 109 143 
3 92 145 146 
3 95 147 148 
3 98 149 150 
3 99 151 152 
3 102 153 145 
3 104 154 147 
3 106 155 149 
3 108 156 151 
3 110 150 157 
3 112 157 158 
3 114 158 159 
3 115 232 160 
3 117 160 153 
3 118 146 161 
3 120 161 162 
3 122 162 163 
3 124 233 164 
3 126 164 154 
3 127 152 165 
3 129 165 166 
3 131 166 167 
3 133 234 168 
3 135 168 155 
3 136 148 169 
3 138 169 170 
3 140 170 171 
3 142 235 172 
3 144 172 156 
3 236 237 238 
3 239 240 241 
3 242 243 244 
3 245 246 247 
3 248 249 238 
3 250 251 252 
3 253 254 255 
3 256 239 257 
3 258 256 259 
3 260 258 261 
3 90 260 262 
3 89 263 90 
3 262 264 91 
3 236 265 237 
3 266 267 268 
3 269 270 271 
3 240 272 241 
3 273 274 272 
3 245 244 274 
3 247 242 244 
3 249 275 238 
3 276 277 275 
3 253 252 277 
3 255 250 252 
3 265 278 237 
3 279 280 278 
3 266 271 280 
3 268 269 271 
3 0 281 1 
3 3 184 4 
3 6 282 7 
3 9 187 10 
3 181 283 182 
3 12 21 13 
3 15 284 16 
3 17 285 18 
3 19 20 191 
3 195 286 193 
3 24 287 25 
3 27 288 28 
3 29 289 30 
3 31 32 200 
3 204 290 202 
3 36 210 37 
3 39 291 40 
3 42 212 43 
3 45 292 46 
3 207 293 208 
3 48 57 49 
3 51 294 52 
3 54 173 55 
3 57 295 215 
3 58 54 56 
3 59 174 60 
3 62 296 63 
3 65 69 66 
3 61 60 68 
3 218 297 69 
3 70 175 71 
3 73 176 74 
3 76 177 77 
3 78 77 219 
3 221 298 73 
3 79 178 80 
3 82 179 83 
3 85 88 86 
3 88 299 222 
3 223 179 82 
3 90 262 91 
3 94 102 92 
3 97 104 95 
3 226 106 98 
3 101 108 99 
3 103 117 102 
3 105 126 104 
3 107 135 106 
3 109 144 108 
3 225 98 110 
3 111 110 112 
3 113 112 114 
3 228 300 115 
3 116 115 117 
3 93 92 118 
3 119 118 120 
3 121 120 122 
3 229 301 124 
3 125 124 126 
3 100 99 127 
3 128 127 129 
3 130 129 131 
3 230 302 133 
3 134 133 135 
3 96 95 136 
3 137 136 138 
3 139 138 140 
3 231 303 142 
3 143 142 144 
3 92 102 145 
3 95 104 147 
3 98 106 149 
3 99 108 151 
3 102 117 153 
3 104 126 154 
3 106 135 155 
3 108 144 156 
3 110 98 150 
3 112 110 157 
3 114 112 158 
3 115 300 232 
3 117 115 160 
3 118 92 146 
3 120 118 161 
3 122 120 162 
3 124 301 233 
3 126 124 164 
3 127 99 152 
3 129 127 165 
3 131 129 166 
3 133 302 234 
3 135 133 168 
3 136 95 148 
3 138 136 169 
3 140 138 170 
3 142 303 235 
3 144 142 172 
3 237 248 238 
3 242 304 243 
3 246 305 247 
3 250 306 251 
3 254 307 255 
3 239 241 257 
3 256 257 259 
3 258 259 261 
3 260 261 262 
3 89 308 263 
3 264 309 91 
3 267 310 268 
3 269 311 270 
3 240 273 272 
3 273 245 274 
3 245 247 244 
3 249 276 275 
3 276 253 277 
3 253 255 252 
3 265 279 278 
3 279 266 280 
3 266 268 271 
